<?xml version="1.0" encoding="UTF-8" standalone="no"?>
<!-- Created with Inkscape (http://www.inkscape.org/) -->

<svg
   xmlns:dc="http://purl.org/dc/elements/1.1/"
   xmlns:cc="http://creativecommons.org/ns#"
   xmlns:rdf="http://www.w3.org/1999/02/22-rdf-syntax-ns#"
   xmlns:svg="http://www.w3.org/2000/svg"
   xmlns="http://www.w3.org/2000/svg"
   xmlns:xlink="http://www.w3.org/1999/xlink"
   xmlns:sodipodi="http://sodipodi.sourceforge.net/DTD/sodipodi-0.dtd"
   xmlns:inkscape="http://www.inkscape.org/namespaces/inkscape"
   width="115.55539mm"
   height="101.3388mm"
   viewBox="0 0 115.55539 101.3388"
   version="1.1"
   id="svg8"
   inkscape:version="0.92.3 (unknown)"
   sodipodi:docname="asd.svg">
  <defs
     id="defs2">
    <inkscape:path-effect
       effect="bspline"
       id="path-effect1638"
       is_visible="true"
       weight="33.333333"
       steps="2"
       helper_size="0"
       apply_no_weight="true"
       apply_with_weight="true"
       only_selected="false" />
    <inkscape:path-effect
       effect="bspline"
       id="path-effect1578"
       is_visible="true"
       weight="33.333333"
       steps="2"
       helper_size="0"
       apply_no_weight="true"
       apply_with_weight="true"
       only_selected="false" />
    <inkscape:path-effect
       effect="bspline"
       id="path-effect1574"
       is_visible="true"
       weight="33.333333"
       steps="2"
       helper_size="0"
       apply_no_weight="true"
       apply_with_weight="true"
       only_selected="false" />
    <inkscape:path-effect
       effect="bspline"
       id="path-effect1570"
       is_visible="true"
       weight="33.333333"
       steps="2"
       helper_size="0"
       apply_no_weight="true"
       apply_with_weight="true"
       only_selected="false" />
    <inkscape:path-effect
       effect="bspline"
       id="path-effect1504"
       is_visible="true"
       weight="33.333333"
       steps="2"
       helper_size="0"
       apply_no_weight="true"
       apply_with_weight="true"
       only_selected="false" />
    <inkscape:path-effect
       effect="bspline"
       id="path-effect1484"
       is_visible="true"
       weight="33.333333"
       steps="2"
       helper_size="0"
       apply_no_weight="true"
       apply_with_weight="true"
       only_selected="false" />
    <inkscape:path-effect
       effect="bspline"
       id="path-effect1462"
       is_visible="true"
       weight="33.333333"
       steps="2"
       helper_size="0"
       apply_no_weight="true"
       apply_with_weight="true"
       only_selected="false" />
    <inkscape:path-effect
       effect="bspline"
       id="path-effect1458"
       is_visible="true"
       weight="33.333333"
       steps="2"
       helper_size="0"
       apply_no_weight="true"
       apply_with_weight="true"
       only_selected="false" />
    <inkscape:path-effect
       effect="bspline"
       id="path-effect1414"
       is_visible="true"
       weight="33.333333"
       steps="2"
       helper_size="0"
       apply_no_weight="true"
       apply_with_weight="true"
       only_selected="false" />
    <inkscape:path-effect
       effect="bspline"
       id="path-effect1379"
       is_visible="true"
       weight="33.333333"
       steps="2"
       helper_size="0"
       apply_no_weight="true"
       apply_with_weight="true"
       only_selected="false" />
    <inkscape:path-effect
       effect="bspline"
       id="path-effect1359"
       is_visible="true"
       weight="33.333333"
       steps="2"
       helper_size="0"
       apply_no_weight="true"
       apply_with_weight="true"
       only_selected="false" />
    <inkscape:path-effect
       effect="bspline"
       id="path-effect1338"
       is_visible="true"
       weight="33.333333"
       steps="2"
       helper_size="0"
       apply_no_weight="true"
       apply_with_weight="true"
       only_selected="false" />
    <inkscape:path-effect
       effect="bspline"
       id="path-effect1318"
       is_visible="true"
       weight="33.333333"
       steps="2"
       helper_size="0"
       apply_no_weight="true"
       apply_with_weight="true"
       only_selected="false" />
    <inkscape:path-effect
       effect="bspline"
       id="path-effect1290"
       is_visible="true"
       weight="33.333333"
       steps="2"
       helper_size="0"
       apply_no_weight="true"
       apply_with_weight="true"
       only_selected="false" />
    <inkscape:path-effect
       effect="bspline"
       id="path-effect1255"
       is_visible="true"
       weight="33.333333"
       steps="2"
       helper_size="0"
       apply_no_weight="true"
       apply_with_weight="true"
       only_selected="false" />
    <inkscape:path-effect
       effect="bspline"
       id="path-effect1247"
       is_visible="true"
       weight="33.333333"
       steps="2"
       helper_size="0"
       apply_no_weight="true"
       apply_with_weight="true"
       only_selected="false" />
    <inkscape:path-effect
       effect="bspline"
       id="path-effect1243"
       is_visible="true"
       weight="33.333333"
       steps="2"
       helper_size="0"
       apply_no_weight="true"
       apply_with_weight="true"
       only_selected="false" />
    <inkscape:path-effect
       effect="bspline"
       id="path-effect1223"
       is_visible="true"
       weight="33.333333"
       steps="2"
       helper_size="0"
       apply_no_weight="true"
       apply_with_weight="true"
       only_selected="false" />
    <inkscape:path-effect
       effect="bspline"
       id="path-effect1203"
       is_visible="true"
       weight="33.333333"
       steps="2"
       helper_size="0"
       apply_no_weight="true"
       apply_with_weight="true"
       only_selected="false" />
    <inkscape:path-effect
       effect="bspline"
       id="path-effect1183"
       is_visible="true"
       weight="33.333333"
       steps="2"
       helper_size="0"
       apply_no_weight="true"
       apply_with_weight="true"
       only_selected="false" />
    <inkscape:path-effect
       effect="bspline"
       id="path-effect1179"
       is_visible="true"
       weight="33.333333"
       steps="2"
       helper_size="0"
       apply_no_weight="true"
       apply_with_weight="true"
       only_selected="false" />
    <inkscape:path-effect
       effect="bspline"
       id="path-effect1159"
       is_visible="true"
       weight="33.333333"
       steps="2"
       helper_size="0"
       apply_no_weight="true"
       apply_with_weight="true"
       only_selected="false" />
    <inkscape:path-effect
       effect="bspline"
       id="path-effect1152"
       is_visible="true"
       weight="33.333333"
       steps="2"
       helper_size="0"
       apply_no_weight="true"
       apply_with_weight="true"
       only_selected="false" />
    <inkscape:path-effect
       effect="bspline"
       id="path-effect1117"
       is_visible="true"
       weight="33.333333"
       steps="2"
       helper_size="0"
       apply_no_weight="true"
       apply_with_weight="true"
       only_selected="false" />
    <inkscape:path-effect
       effect="bspline"
       id="path-effect1112"
       is_visible="true"
       weight="33.333333"
       steps="2"
       helper_size="0"
       apply_no_weight="true"
       apply_with_weight="true"
       only_selected="false" />
    <inkscape:path-effect
       effect="skeletal"
       id="path-effect1065"
       is_visible="true"
       pattern="M 0,5 C 0,2.24 2.24,0 5,0 7.76,0 10,2.24 10,5 10,7.76 7.76,10 5,10 2.24,10 0,7.76 0,5 Z"
       copytype="single_stretched"
       prop_scale="0.26458333"
       scale_y_rel="false"
       spacing="0"
       normal_offset="0"
       tang_offset="0"
       prop_units="false"
       vertical_pattern="false"
       fuse_tolerance="0" />
    <inkscape:path-effect
       effect="skeletal"
       id="path-effect1057"
       is_visible="true"
       pattern="M 0,5 C 0,2.24 2.24,0 5,0 7.76,0 10,2.24 10,5 10,7.76 7.76,10 5,10 2.24,10 0,7.76 0,5 Z"
       copytype="single_stretched"
       prop_scale="0.26458333"
       scale_y_rel="false"
       spacing="0"
       normal_offset="0"
       tang_offset="0"
       prop_units="false"
       vertical_pattern="false"
       fuse_tolerance="0" />
    <inkscape:path-effect
       effect="skeletal"
       id="path-effect1053"
       is_visible="true"
       pattern="M 0,5 C 0,2.24 2.24,0 5,0 7.76,0 10,2.24 10,5 10,7.76 7.76,10 5,10 2.24,10 0,7.76 0,5 Z"
       copytype="single_stretched"
       prop_scale="0.26458333"
       scale_y_rel="false"
       spacing="0"
       normal_offset="0"
       tang_offset="0"
       prop_units="false"
       vertical_pattern="false"
       fuse_tolerance="0" />
    <inkscape:path-effect
       effect="skeletal"
       id="path-effect1045"
       is_visible="true"
       pattern="M 0,5 C 0,2.24 2.24,0 5,0 7.76,0 10,2.24 10,5 10,7.76 7.76,10 5,10 2.24,10 0,7.76 0,5 Z"
       copytype="single_stretched"
       prop_scale="0.26458333"
       scale_y_rel="false"
       spacing="0"
       normal_offset="0"
       tang_offset="0"
       prop_units="false"
       vertical_pattern="false"
       fuse_tolerance="0" />
    <inkscape:path-effect
       effect="skeletal"
       id="path-effect1041"
       is_visible="true"
       pattern="M 0,5 C 0,2.24 2.24,0 5,0 7.76,0 10,2.24 10,5 10,7.76 7.76,10 5,10 2.24,10 0,7.76 0,5 Z"
       copytype="single_stretched"
       prop_scale="0.26458333"
       scale_y_rel="false"
       spacing="0"
       normal_offset="0"
       tang_offset="0"
       prop_units="false"
       vertical_pattern="false"
       fuse_tolerance="0" />
    <inkscape:path-effect
       effect="skeletal"
       id="path-effect1037"
       is_visible="true"
       pattern="M 0,5 C 0,2.24 2.24,0 5,0 7.76,0 10,2.24 10,5 10,7.76 7.76,10 5,10 2.24,10 0,7.76 0,5 Z"
       copytype="single_stretched"
       prop_scale="0.26458333"
       scale_y_rel="false"
       spacing="0"
       normal_offset="0"
       tang_offset="0"
       prop_units="false"
       vertical_pattern="false"
       fuse_tolerance="0" />
    <inkscape:path-effect
       effect="skeletal"
       id="path-effect1021"
       is_visible="true"
       pattern="M 0,5 C 0,2.24 2.24,0 5,0 7.76,0 10,2.24 10,5 10,7.76 7.76,10 5,10 2.24,10 0,7.76 0,5 Z"
       copytype="single_stretched"
       prop_scale="0.26458333"
       scale_y_rel="false"
       spacing="0"
       normal_offset="0"
       tang_offset="0"
       prop_units="false"
       vertical_pattern="false"
       fuse_tolerance="0" />
    <inkscape:path-effect
       effect="skeletal"
       id="path-effect1017"
       is_visible="true"
       pattern="M 0,5 C 0,2.24 2.24,0 5,0 7.76,0 10,2.24 10,5 10,7.76 7.76,10 5,10 2.24,10 0,7.76 0,5 Z"
       copytype="single_stretched"
       prop_scale="0.26458333"
       scale_y_rel="false"
       spacing="0"
       normal_offset="0"
       tang_offset="0"
       prop_units="false"
       vertical_pattern="false"
       fuse_tolerance="0" />
    <inkscape:path-effect
       effect="skeletal"
       id="path-effect1013"
       is_visible="true"
       pattern="M 0,5 C 0,2.24 2.24,0 5,0 7.76,0 10,2.24 10,5 10,7.76 7.76,10 5,10 2.24,10 0,7.76 0,5 Z"
       copytype="single_stretched"
       prop_scale="0.26458333"
       scale_y_rel="false"
       spacing="0"
       normal_offset="0"
       tang_offset="0"
       prop_units="false"
       vertical_pattern="false"
       fuse_tolerance="0" />
    <inkscape:path-effect
       effect="skeletal"
       id="path-effect987"
       is_visible="true"
       pattern="M 0,5 C 0,2.24 2.24,0 5,0 7.76,0 10,2.24 10,5 10,7.76 7.76,10 5,10 2.24,10 0,7.76 0,5 Z"
       copytype="single_stretched"
       prop_scale="0.26458333"
       scale_y_rel="false"
       spacing="0"
       normal_offset="0"
       tang_offset="0"
       prop_units="false"
       vertical_pattern="false"
       fuse_tolerance="0" />
    <inkscape:path-effect
       effect="skeletal"
       id="path-effect979"
       is_visible="true"
       pattern="m 0.53453906,7.9399648 c 0,-2.76 2.24000004,-5 5.00000004,-5 2.76,0 4.9999999,2.24 4.9999999,5 0,2.7600002 -2.2399999,5.0000002 -4.9999999,5.0000002 -2.76,0 -5.00000004,-2.24 -5.00000004,-5.0000002 z"
       copytype="single_stretched"
       prop_scale="0.26458333"
       scale_y_rel="false"
       spacing="0"
       normal_offset="0"
       tang_offset="0"
       prop_units="false"
       vertical_pattern="false"
       fuse_tolerance="0" />
    <inkscape:path-effect
       effect="skeletal"
       id="path-effect975"
       is_visible="true"
       pattern="M 0,5 C 0,2.24 2.24,0 5,0 7.76,0 10,2.24 10,5 10,7.76 7.76,10 5,10 2.24,10 0,7.76 0,5 Z"
       copytype="single_stretched"
       prop_scale="0.26458333"
       scale_y_rel="false"
       spacing="0"
       normal_offset="0"
       tang_offset="0"
       prop_units="false"
       vertical_pattern="false"
       fuse_tolerance="0" />
    <inkscape:path-effect
       effect="skeletal"
       id="path-effect971"
       is_visible="true"
       pattern="M 0,5 C 0,2.24 2.24,0 5,0 7.76,0 10,2.24 10,5 10,7.76 7.76,10 5,10 2.24,10 0,7.76 0,5 Z"
       copytype="single_stretched"
       prop_scale="0.26458333"
       scale_y_rel="false"
       spacing="0"
       normal_offset="0"
       tang_offset="0"
       prop_units="false"
       vertical_pattern="false"
       fuse_tolerance="0" />
    <linearGradient
       inkscape:collect="always"
       id="linearGradient939">
      <stop
         style="stop-color:#d5f6ff;stop-opacity:1"
         offset="0"
         id="stop935" />
      <stop
         style="stop-color:#ffffff;stop-opacity:1"
         offset="1"
         id="stop937" />
    </linearGradient>
    <inkscape:path-effect
       effect="bspline"
       id="path-effect866"
       is_visible="true"
       weight="33.333333"
       steps="2"
       helper_size="0"
       apply_no_weight="true"
       apply_with_weight="true"
       only_selected="false" />
    <inkscape:path-effect
       effect="bspline"
       id="path-effect862"
       is_visible="true"
       weight="33.333333"
       steps="2"
       helper_size="0"
       apply_no_weight="true"
       apply_with_weight="true"
       only_selected="false" />
    <inkscape:path-effect
       effect="bspline"
       id="path-effect858"
       is_visible="true"
       weight="33.333333"
       steps="2"
       helper_size="0"
       apply_no_weight="true"
       apply_with_weight="true"
       only_selected="false" />
    <inkscape:path-effect
       effect="bspline"
       id="path-effect853"
       is_visible="true"
       weight="33.333333"
       steps="2"
       helper_size="0"
       apply_no_weight="true"
       apply_with_weight="true"
       only_selected="false" />
    <inkscape:path-effect
       effect="bspline"
       id="path-effect849"
       is_visible="true"
       weight="33.333333"
       steps="2"
       helper_size="0"
       apply_no_weight="true"
       apply_with_weight="true"
       only_selected="false" />
    <linearGradient
       inkscape:collect="always"
       xlink:href="#linearGradient939"
       id="linearGradient941"
       x1="10.860222"
       y1="199.31"
       x2="-44.766151"
       y2="144.05653"
       gradientUnits="userSpaceOnUse" />
    <inkscape:path-effect
       effect="skeletal"
       id="path-effect979-6"
       is_visible="true"
       pattern="m 1202.3036,-394.10146 c 0,-2.76 2.24,-5 5,-5 2.76,0 5,2.24 5,5 0,2.76 -2.24,5 -5,5 -2.76,0 -5,-2.24 -5,-5 z"
       copytype="single_stretched"
       prop_scale="0.15023353"
       scale_y_rel="false"
       spacing="0"
       normal_offset="0"
       tang_offset="0"
       prop_units="false"
       vertical_pattern="false"
       fuse_tolerance="0" />
    <inkscape:path-effect
       effect="bspline"
       id="path-effect1462-7"
       is_visible="true"
       weight="33.333333"
       steps="2"
       helper_size="0"
       apply_no_weight="true"
       apply_with_weight="true"
       only_selected="false" />
    <inkscape:path-effect
       effect="bspline"
       id="path-effect1152-9"
       is_visible="true"
       weight="33.333333"
       steps="2"
       helper_size="0"
       apply_no_weight="true"
       apply_with_weight="true"
       only_selected="false" />
    <inkscape:path-effect
       effect="bspline"
       id="path-effect1179-4"
       is_visible="true"
       weight="33.333333"
       steps="2"
       helper_size="0"
       apply_no_weight="true"
       apply_with_weight="true"
       only_selected="false" />
    <inkscape:path-effect
       effect="bspline"
       id="path-effect1462-78"
       is_visible="true"
       weight="33.333333"
       steps="2"
       helper_size="0"
       apply_no_weight="true"
       apply_with_weight="true"
       only_selected="false" />
    <inkscape:path-effect
       effect="bspline"
       id="path-effect1458-4"
       is_visible="true"
       weight="33.333333"
       steps="2"
       helper_size="0"
       apply_no_weight="true"
       apply_with_weight="true"
       only_selected="false" />
    <inkscape:path-effect
       effect="bspline"
       id="path-effect1462-7-5"
       is_visible="true"
       weight="33.333333"
       steps="2"
       helper_size="0"
       apply_no_weight="true"
       apply_with_weight="true"
       only_selected="false" />
    <inkscape:path-effect
       effect="bspline"
       id="path-effect1570-0"
       is_visible="true"
       weight="33.333333"
       steps="2"
       helper_size="0"
       apply_no_weight="true"
       apply_with_weight="true"
       only_selected="false" />
    <inkscape:path-effect
       effect="bspline"
       id="path-effect1574-3"
       is_visible="true"
       weight="33.333333"
       steps="2"
       helper_size="0"
       apply_no_weight="true"
       apply_with_weight="true"
       only_selected="false" />
  </defs>
  <sodipodi:namedview
     id="base"
     pagecolor="#ffffff"
     bordercolor="#666666"
     borderopacity="1.0"
     inkscape:pageopacity="0.0"
     inkscape:pageshadow="2"
     inkscape:zoom="0.5"
     inkscape:cx="-395.07817"
     inkscape:cy="25.852236"
     inkscape:document-units="mm"
     inkscape:current-layer="layer1"
     showgrid="false"
     inkscape:snap-bbox="true"
     inkscape:snap-bbox-edge-midpoints="true"
     inkscape:window-width="1600"
     inkscape:window-height="847"
     inkscape:window-x="0"
     inkscape:window-y="25"
     inkscape:window-maximized="1"
     inkscape:snap-global="false"
     inkscape:bbox-nodes="true"
     inkscape:bbox-paths="true"
     fit-margin-top="0"
     fit-margin-left="0"
     fit-margin-right="0"
     fit-margin-bottom="0" />
  <metadata
     id="metadata5">
    <rdf:RDF>
      <cc:Work
         rdf:about="">
        <dc:format>image/svg+xml</dc:format>
        <dc:type
           rdf:resource="http://purl.org/dc/dcmitype/StillImage" />
        <dc:title></dc:title>
      </cc:Work>
    </rdf:RDF>
  </metadata>
  <g
     inkscape:label="Layer 1"
     inkscape:groupmode="layer"
     id="layer1"
     transform="translate(-42.966805,-35.706104)">
    <rect
       style="opacity:1;fill:#4d4d4d;fill-opacity:1;stroke:none;stroke-width:1.89649832;stroke-linecap:round;stroke-miterlimit:4;stroke-dasharray:none;stroke-dashoffset:0;stroke-opacity:1"
       id="rect1596"
       width="115.55539"
       height="101.3388"
       x="42.966805"
       y="35.706104" />
    <g
       id="g1634"
       transform="translate(269.10569,-2.0575704)">
      <g
         id="g1759">
        <rect
           style="opacity:1;fill:#808080;fill-opacity:1;stroke:none;stroke-width:1.91378176;stroke-linecap:round;stroke-miterlimit:4;stroke-dasharray:none;stroke-dashoffset:0;stroke-opacity:1"
           id="rect826"
           width="55.913219"
           height="55.913219"
           x="-0.089390591"
           y="188.3605"
           transform="matrix(0.89442719,0.44721359,-0.89442719,0.44721359,0,0)" />
        <rect
           style="opacity:1;fill:url(#linearGradient941);fill-opacity:1;stroke:none;stroke-width:1.91378176;stroke-linecap:round;stroke-miterlimit:4;stroke-dasharray:none;stroke-dashoffset:0;stroke-opacity:1"
           id="rect826-3"
           width="55.913216"
           height="55.913216"
           x="-45.052994"
           y="143.39677"
           transform="matrix(0.89442719,0.4472136,-0.89442719,0.4472136,0,0)" />
        <path
           style="opacity:1;fill:#ffffff;fill-opacity:1;stroke:none;stroke-width:1.71173835;stroke-linecap:round;stroke-miterlimit:4;stroke-dasharray:none;stroke-dashoffset:0;stroke-opacity:1"
           d="m -209.23585,64.321987 -9.32913,4.664313 50.01038,25.00468 50.00987,-25.00468 -4.32635,-2.163175 c -0.92205,0.263993 -1.79972,0.526081 -2.60294,0.743625 -1.5117,0.409424 -2.77196,0.661019 -3.93723,1.259353 -1.16527,0.598336 -2.23667,1.543685 -3.52795,2.299602 -1.29129,0.755917 -2.80351,1.323086 -3.81114,1.92133 -1.00763,0.598244 -1.51192,1.228243 -2.55126,1.795238 -1.03934,0.566996 -2.61478,1.07108 -3.71708,1.952852 -1.10231,0.881775 -1.73215,2.142255 -2.80295,3.087155 -1.07076,0.9449 -2.60556,1.58409 -4.04315,2.36678 -1.43758,0.78269 -2.82384,1.72777 -4.24108,2.57813 -1.41724,0.85037 -2.86634,1.60683 -5.22862,2.52026 -2.36228,0.91344 -5.69531,2.00273 -8.18658,2.33991 -2.49126,0.33719 -4.25489,-0.0407 -5.48341,-0.54467 -1.22848,-0.50398 -1.92135,-1.13398 -2.67734,-2.14199 -0.756,-1.008 -1.57507,-2.39393 -2.23655,-3.49642 -0.66151,-1.10249 -1.16533,-1.92136 -2.33061,-2.48822 -1.16528,-0.56686 -2.9926,-0.88202 -4.94543,-1.38596 -1.95284,-0.50395 -4.0318,-1.19649 -5.51233,-2.172998 -1.48056,-0.976508 -2.36233,-2.236727 -3.71658,-2.961061 -1.35421,-0.724333 -3.18106,-0.913601 -4.53564,-1.575096 -1.35456,-0.661498 -2.23655,-1.795454 -3.37032,-2.582788 -1.13379,-0.787337 -2.51947,-1.228111 -3.18122,-1.889808 -0.66175,-0.661699 -0.59396,-1.60642 -1.6986,-2.645833 -0.49273,-0.463648 -1.22187,-0.971069 -2.02676,-1.480529 z"
           id="rect826-3-7"
           inkscape:connector-curvature="0" />
        <path
           style="fill:#ffffff;stroke:none;stroke-width:0.26458332px;stroke-linecap:butt;stroke-linejoin:miter;stroke-opacity:1"
           d="m -168.88814,44.404006 c -0.20921,-0.0024 -0.41955,0.0038 -0.63048,0.01447 l -22.87405,11.43703 c -0.35075,1.234834 -0.48125,2.209911 -0.17155,3.404441 0.31189,1.203029 1.06894,2.628173 1.98231,3.318661 0.91337,0.690488 1.98266,0.645607 2.78432,-0.11162 0.80166,-0.757229 1.33606,-2.227302 1.91513,-3.363103 0.57907,-1.1358 1.20311,-1.937776 2.13836,-2.494422 0.93525,-0.556644 2.18287,-0.868583 4.09795,-1.158068 1.91508,-0.289484 4.49929,-0.556824 7.08276,-1.336353 2.58347,-0.779528 5.16729,-2.071893 6.72621,-3.564122 1.55893,-1.492232 2.09373,-3.184964 1.42576,-4.34289 -0.0466,-0.08069 -0.10027,-0.158091 -0.15814,-0.233576 l -2.87528,-1.437638 c -0.46463,-0.08205 -0.95149,-0.127143 -1.4433,-0.13281 z"
           id="path856"
           inkscape:connector-curvature="0" />
        <path
           style="fill:#ffffff;stroke:none;stroke-width:0.99999994px;stroke-linecap:butt;stroke-linejoin:miter;stroke-opacity:1"
           d="m -557.92773,205.93555 c -2.03781,0.33528 -4.0716,0.67241 -6.26758,0.85547 -3.62428,0.30212 -7.69498,0.18619 -11.94336,0.20312 -1.47206,0.31827 -2.99101,0.7221 -4.51758,1.26563 -5.5869,1.98921 -11.20749,5.71499 -17.5625,10.00781 -6.35509,4.29281 -13.44785,9.1537 -20.02344,12.76172 -6.57562,3.60801 -12.74008,6.0059 -18.07617,9.22656 -5.33601,3.22065 -10.0521,7.34589 -11.98828,10.33398 -1.93648,2.98811 -1.09433,4.83878 0.043,5.76563 1.1373,0.92684 2.56919,0.92701 4.08398,1.64258 1.5148,0.71557 3.11375,2.14697 5.59766,3.11523 2.48379,0.96826 5.84963,1.47254 9.89062,1.93555 4.04092,0.46301 8.75338,0.88341 13.13086,1.85156 4.37741,0.96814 8.49175,2.51059 11.82227,3.84375 3.33059,1.33316 6.09476,2.54432 10.68945,4.38086 4.5947,1.83654 11.16126,4.36075 18.14844,6.67578 2.53194,0.83889 5.11166,1.62943 7.68164,2.37891 -2.30335,-2.13649 -16.62163,-15.30315 -20.12695,-18.48242 -3.61992,-3.28319 -6.81862,-7.32363 -8.25,-11.36524 -1.43142,-4.04162 -1.09415,-8.08018 1.34765,-11.2793 2.4418,-3.1991 6.9872,-5.55582 13.30078,-6.81835 6.31371,-1.26253 14.39324,-1.43094 21.54883,-0.92579 7.15559,0.50515 13.38448,1.68232 18.43555,3.0293 5.05111,1.34697 9.6295,-1.09899 14.24219,0.54492 4.61268,1.64392 7.38945,-4.33351 13.36718,0.63281 4.96759,-0.5895 10.60816,2.69486 11.36524,-2.1875 0.0684,-0.44028 0.0971,-0.90069 0.10547,-1.36914 z m -34.54493,2.84375 c -6.27485,1.69533 -12.54946,4.73645 -19.42382,8.86914 0.87144,-0.41265 1.76807,-0.84377 2.60351,-1.24024 4.54908,-2.15878 8.71526,-4.18285 13.31445,-6.16601 1.14978,-0.49579 2.32559,-0.98833 3.50586,-1.46289 z m -66.13672,41.37304 c -1.22947,0.74151 -2.51025,1.46625 -3.83593,2.17969 1.06447,-0.17227 1.96851,-0.45036 2.70117,-1 0.41898,-0.31434 0.78527,-0.71421 1.13476,-1.17969 z m -6.64648,17.67383 c -3.1769,-0.007 -5.76841,0.79876 -9.72656,1.42383 -4.52361,0.71437 -10.83445,1.19022 -16.96485,2.02344 -6.13031,0.83321 -11.9691,2.00105 -17.02539,3.73828 -5.05621,1.73723 -9.10543,4.00029 -13.39062,6.5 -1.15469,0.67356 -2.34628,1.36031 -3.52539,2.04883 -2.62643,3.0142 -6.64087,6.39133 -3.25642,9.04687 5.472,4.2936 2.0426,9.55456 8.1875,13.00586 6.14491,3.45129 42.93473,23.30777 48.74386,21.96066 4.59611,5.23121 21.28261,8.87459 14.70698,2.33461 -32.76488,-32.58726 -18.29295,-31.89694 -1.15898,-37.39264 7.9135,-2.94638 15.3406,1.56976 24.09542,1.65401 8.75478,0.0842 19.19107,1.0942 27.27343,0.92578 8.08241,-0.16845 13.80576,-1.51479 15.99415,-4.29297 2.1883,-2.77818 0.84277,-6.98823 -2.1875,-11.36523 -0.91339,-1.31925 -2.52227,-2.61935 -4.2461,-3.83789 -2.36182,-0.57622 -4.62084,-1.00986 -6.77148,-1.23047 -4.64202,-0.47618 -8.80797,-0.001 -14.10547,-0.0606 -5.29739,-0.0594 -11.72843,-0.65483 -17.14453,-1.25 -5.4161,-0.59516 -9.82125,-1.19036 -14.52344,-2.26171 -4.70222,-1.07134 -9.70456,-2.61842 -13.57227,-2.91602 -0.48346,-0.0372 -0.9485,-0.0536 -1.40234,-0.0547 z"
           id="path864"
           transform="scale(0.26458333)"
           inkscape:connector-curvature="0"
           sodipodi:nodetypes="ccccccccccccccsccccccsccccccccccccccccssccccccscsccccccccscc" />
        <path
           style="opacity:1;fill:#d3e6eb;fill-opacity:1;stroke:none;stroke-width:0.26458332px;stroke-linecap:butt;stroke-linejoin:miter;stroke-opacity:1"
           d="m -152.6796,54.183461 c -0.42352,0.01159 -0.88032,0.05717 -1.40663,0.173117 -1.05267,0.231886 -2.38294,0.745493 -3.59979,1.270206 -1.21687,0.524712 -2.31918,1.060247 -3.52279,1.631424 -1.20359,0.57118 -2.60747,1.224103 -3.56825,1.759582 -0.96079,0.53548 -1.52768,0.976416 -2.45722,1.575099 -0.92953,0.598684 -2.22027,1.354423 -3.3543,2.078943 -1.13406,0.724519 -2.11029,1.416936 -2.70889,2.109948 -0.59859,0.693013 -0.81883,1.385806 -1.25986,1.716691 -0.44106,0.330885 -1.10228,0.299522 -2.01592,0.378272 -0.91363,0.07875 -2.07885,0.267886 -3.62251,0.582909 -1.54364,0.315024 -3.46462,0.755685 -4.83484,1.275374 -0.66225,0.251171 -1.19396,0.520763 -1.6609,0.792718 -0.009,-0.272291 -0.30118,-0.327648 -0.47525,-0.684044 -0.31494,-0.644687 -0.89121,-1.241815 -1.86475,-2.190791 -0.97358,-0.948973 -2.26593,-1.819722 -2.94636,-2.778519 -0.68043,-0.9588 -0.68372,-2.324524 -0.56119,-3.13762 0.12255,-0.813096 0.5348,-1.742536 0.62359,-2.192335 0.0888,-0.4498 0.0447,-0.472059 -0.2894,0.273886 -0.33406,0.745945 -0.958,2.260552 -0.95808,3.463353 -5e-5,1.202801 0.62341,2.09399 1.42526,2.940389 0.80182,0.846399 1.78242,1.648111 2.45049,2.538862 0.66805,0.890754 1.02431,1.871033 1.2025,2.361097 0.0376,0.103254 0.0645,0.173879 0.0899,0.237712 -0.0144,0.0095 -0.0295,0.0195 -0.0439,0.02894 -0.81907,0.535572 -1.63753,1.007803 -2.36212,1.590601 -0.72462,0.582797 -1.35469,1.275421 -2.2841,1.889807 -0.9294,0.614389 -2.15733,1.149956 -3.1378,1.567347 -0.98046,0.417391 -1.71214,0.716407 -2.54711,0.72037 -0.83498,0.004 -1.77205,-0.287512 -2.08309,-0.342617 -0.31105,-0.0551 0.004,0.125992 0.16123,0.216525 0.15746,0.09053 0.15761,0.09086 0.55139,0.327112 0.39376,0.236257 1.18145,0.708859 2.09495,0.787548 0.91353,0.07869 1.95262,-0.236371 3.07062,-0.756025 1.118,-0.519653 2.31561,-1.24445 3.4494,-1.905826 1.13379,-0.661379 2.20514,-1.260149 3.54293,-1.719792 1.33781,-0.459642 2.88266,-0.768633 4.50464,-0.989086 1.622,-0.220456 3.29176,-0.346358 4.48863,-0.535369 1.19687,-0.18901 1.92119,-0.440989 2.94452,-0.362251 1.02333,0.07874 2.34685,0.488069 3.59098,0.771527 1.24412,0.283462 2.40966,0.440944 3.84267,0.598414 1.43301,0.157472 3.13455,0.314999 4.53615,0.330729 1.40163,0.01573 2.50388,-0.109969 3.73208,0.01602 1.2282,0.125984 2.58331,0.504005 4.07935,0.992188 1.496,0.488183 3.13396,1.086623 4.47259,1.559078 1.33861,0.472454 2.37813,0.819005 3.3078,1.068152 0.92966,0.249145 1.8107,0.412541 3.68453,0.302308 1.87381,-0.110236 4.77218,-0.488386 6.37842,-0.559141 1.60625,-0.07075 1.92137,0.165417 1.91461,0.1695 -0.007,0.0041 -0.33538,-0.224274 -0.7028,-0.324528 -0.3674,-0.100256 -0.7738,-0.07213 -1.45623,-0.06098 -0.68244,0.01115 -1.63931,0.0054 -2.34096,0.03876 -0.70162,0.03339 -1.14718,0.10573 -2.06084,0.108522 -0.91368,0.0028 -2.29346,-0.06384 -3.96412,-0.375688 -1.67063,-0.311845 -3.63003,-0.868529 -5.47873,-1.481047 -1.84869,-0.612518 -3.58608,-1.280382 -4.80176,-1.7663 -1.21568,-0.485918 -1.94704,-0.806371 -2.82826,-1.159103 -0.8812,-0.352732 -1.96977,-0.760838 -3.12796,-1.016992 -1.15821,-0.256156 -2.40506,-0.367387 -3.47422,-0.489892 -1.06918,-0.122505 -1.95971,-0.255929 -2.61688,-0.512114 -0.6572,-0.256186 -1.08027,-0.63491 -1.48106,-0.824238 -0.40079,-0.189328 -0.77965,-0.189373 -1.08056,-0.434599 -0.30091,-0.245229 -0.52366,-0.734888 -0.0113,-1.52549 0.51228,-0.790601 1.76006,-1.882068 3.17188,-2.734199 1.41184,-0.852133 3.04286,-1.486574 4.78266,-2.441194 1.73979,-0.954622 3.61643,-2.240732 5.29788,-3.376538 1.68143,-1.135809 3.16852,-2.121588 4.64672,-2.647902 1.47823,-0.526312 2.9486,-0.593442 3.76153,-0.640787 0.81296,-0.04735 0.96882,-0.07494 0.99115,-0.09715 0.0223,-0.02221 -0.0894,-0.03918 -0.54673,-0.0615 -0.45733,-0.02231 -1.25786,-0.0499 -2.04587,-0.08888 -0.39401,-0.01949 -0.78417,-0.04208 -1.20766,-0.03049 z"
           id="path847"
           inkscape:connector-curvature="0"
           sodipodi:nodetypes="cccccccccscccccccccccccccccccccccsccsscccscccsccccsccccsccccscccccccccscc" />
        <path
           style="fill:#ffffff;stroke:none;stroke-width:0.26458332px;stroke-linecap:butt;stroke-linejoin:miter;stroke-opacity:1"
           d="m -200.42306,59.914822 -16.1804,8.090464 c 0.29543,0.841735 0.85016,1.692891 1.58234,2.470131 0.16086,0.170768 0.33128,0.337746 0.50797,0.500745 l 5.99239,2.995684 c 1.52625,0.226904 2.813,0.009 3.36621,-0.378272 0.6681,-0.467759 0.26766,-1.179875 0.26768,-1.915128 3e-5,-0.735256 0.40053,-1.49271 1.02423,-2.071709 0.6237,-0.578998 1.46987,-0.979998 2.69494,-1.336352 1.22505,-0.356354 2.82837,-0.667919 4.0757,-1.60352 1.24735,-0.935601 2.13828,-2.494854 1.75958,-3.741891 -0.3787,-1.247037 -2.02702,-2.18277 -3.56359,-2.672705 -0.50988,-0.16257 -1.0091,-0.271327 -1.52705,-0.337447 z"
           id="path860"
           inkscape:connector-curvature="0" />
        <path
           style="opacity:1;fill:#0496be;fill-opacity:1;stroke:none;stroke-width:2.7809999;stroke-linecap:round;stroke-miterlimit:4;stroke-dasharray:none;stroke-dashoffset:0;stroke-opacity:1"
           d="m -218.5649,68.985832 50.0103,25.005148 v 40.34899 l -50.0103,-25.00515 z"
           id="rect943"
           inkscape:connector-curvature="0"
           sodipodi:nodetypes="ccccc" />
        <path
           style="fill:#09508c;fill-opacity:1;stroke:none;stroke-width:0.26458332px;stroke-linecap:butt;stroke-linejoin:miter;stroke-opacity:1"
           d="m -188.47497,86.138863 c -0.0792,0.0016 -0.15769,0.01069 -0.23564,0.02739 -1.24709,0.26724 -2.35085,2.566853 -3.31348,6.762377 -0.96266,4.195525 -1.85397,10.43197 -2.61123,16.9354 -0.42743,3.67089 -0.80597,7.41597 -1.0201,10.87272 l 11.92641,5.96294 c 0.21651,-0.86736 -0.69398,-2.07087 -0.52796,-3.08665 0.10321,-0.63145 -0.33815,-3.43179 -0.25536,-4.12727 0.66812,-5.61269 1.63696,-11.22522 1.23601,-17.01623 -0.40093,-5.791 -0.53434,-9.354222 -1.64797,-12.115946 -1.04402,-2.589117 -2.36241,-4.238823 -3.55068,-4.214731 z"
           id="path1181"
           inkscape:connector-curvature="0"
           sodipodi:nodetypes="ccccccscccc" />
        <path
           style="fill:#50bee1;fill-opacity:1;stroke:none;stroke-width:0.26458332px;stroke-linecap:butt;stroke-linejoin:miter;stroke-opacity:1"
           d="m -210.04079,73.245241 c -0.0393,0.575265 -0.0731,1.422228 -0.10388,2.622579 -0.0787,3.071051 -0.14142,8.394621 -0.25164,15.623337 -0.10634,6.971791 -0.25882,15.689233 -0.59428,21.628143 l 5.56916,2.78432 c 0.0399,-2.74499 0.0424,-5.6778 -0.0139,-8.45891 -0.12637,-6.23676 -0.53578,-11.71672 -1.07127,-16.0321 -0.5355,-4.315381 -1.20314,-7.49535 -1.65675,-9.874335 -0.45357,-2.378982 -0.70556,-4.016515 -0.95755,-5.622912 -0.13896,-0.885769 -0.2763,-1.739876 -0.40206,-2.411222 z"
           id="path1157"
           inkscape:connector-curvature="0" />
        <path
           style="fill:#05bbd5;fill-opacity:1;stroke:none;stroke-width:0.23190281px;stroke-linecap:butt;stroke-linejoin:miter;stroke-opacity:1"
           d="m -214.10096,75.764203 c 0.8662,0.02436 2.34661,0.556705 3.13397,2.492384 0.78736,1.93568 0.88186,5.274916 0.92911,6.94464 0.0472,1.669724 0.0472,13.284521 -0.45667,14.228138 -0.50393,0.943615 -1.51181,2.830915 -1.9686,4.887885 -0.4568,2.05697 -0.36231,4.28285 -0.45672,5.35976 -0.0944,1.07691 -0.37785,1.00432 -0.83486,-4.68537 -0.457,-5.689694 -1.08661,-16.983596 -1.27552,-22.875718 -0.18891,-5.892122 0.0631,-6.376079 0.92929,-6.351719 z"
           id="path1150"
           inkscape:connector-curvature="0"
           inkscape:path-effect="#path-effect1152"
           inkscape:original-d="m -214.71532,75.25616 c 1.48066,0.532139 2.96106,1.064484 4.4412,1.597033 0.0948,3.339065 0.18926,6.678302 0.28349,10.017758 v 11.614797 c -1.00772,1.887302 -2.0156,3.774602 -3.02382,5.662212 0.0948,2.22625 0.18926,4.45213 0.2835,6.67851 -0.28326,-0.0728 -0.56671,-0.14539 -0.85045,-0.21778 -0.63005,-11.306759 -1.25965,-22.600662 -1.88989,-33.900681 0.25225,-0.484144 0.50424,-0.968103 0.75597,-1.451849 z"
           sodipodi:nodetypes="ccccccccc" />
        <path
           style="opacity:1;fill:#17325f;fill-opacity:1;stroke:none;stroke-width:2.7809999;stroke-linecap:round;stroke-miterlimit:4;stroke-dasharray:none;stroke-dashoffset:0;stroke-opacity:1"
           d="m -210.15476,73.61607 0.47247,0.283482 1.1444,40.445428 -2.4527,-1.22568 z"
           id="rect1154"
           inkscape:connector-curvature="0"
           sodipodi:nodetypes="ccccc" />
        <path
           style="fill:#ffffff;stroke:none;stroke-width:0.25952187px;stroke-linecap:butt;stroke-linejoin:miter;stroke-opacity:1"
           d="m -218.56498,68.9863 c 0.024,2.850494 0.13706,3.386018 0.53195,4.116242 0.40963,0.757507 3.68284,0.831979 4.34424,0.468498 0.66138,-0.363477 1.41769,-0.363078 2.11048,0.06098 0.69276,0.424053 1.32291,1.272797 2.14198,2.696993 0.81905,1.424194 1.82727,3.423939 2.7409,4.66638 0.91363,1.242441 1.73241,1.726858 2.83499,2.029851 1.10257,0.302996 2.48901,0.424614 3.40235,0.879015 0.91337,0.454403 1.35414,1.241943 1.95287,1.605587 0.59872,0.363646 1.35458,0.303413 1.87999,0.812355 0.52539,0.508942 0.8604,1.732944 1.14152,3.705717 0.28112,1.972773 0.53795,4.875522 0.53795,8.633063 3e-5,3.757549 0.31516,5.116329 0.0947,9.025289 -0.2205,3.90897 -0.30908,2.38278 -0.27754,3.53417 0.0316,1.15139 1.68624,0.67059 2.09563,-1.35901 0.40939,-2.02962 1.06018,-1.18366 0.46697,-3.78869 0.693,-2.93913 0.64485,-2.38207 1.27485,-4.53338 0.63,-2.151304 1.07093,-3.787529 1.20716,-4.902544 0.13626,-1.115013 -0.0734,-1.854491 0.0527,-2.490804 0.1261,-0.636312 0.56694,-1.2427 1.15964,-1.738394 0.59266,-0.495694 1.48688,-0.958628 2.68353,-0.958599 1.19669,2.9e-5 2.77212,0.424667 4.38682,0.8816 1.6147,0.456933 3.23668,0.936879 4.84312,1.51257 1.60644,0.575691 3.18148,1.242181 4.18941,1.878438 1.00793,0.636254 1.44923,1.242608 2.04793,1.54564 0.59873,0.303036 1.35451,0.302589 1.98438,-0.151926 0.0624,-0.04504 0.12252,-0.09788 0.1819,-0.151929 v -2.97243 z"
           id="path1115"
           inkscape:connector-curvature="0"
           sodipodi:nodetypes="cccccsccccscccccscscssscccccc" />
        <path
           style="opacity:1;fill:#09508c;fill-opacity:1;stroke:none;stroke-width:2.7809999;stroke-linecap:round;stroke-miterlimit:4;stroke-dasharray:none;stroke-dashoffset:0;stroke-opacity:1"
           d="m -168.55462,93.99098 50.00998,-24.87242 v 40.34899 l -50.00998,24.87242 z"
           id="rect943-9"
           inkscape:connector-curvature="0"
           sodipodi:nodetypes="ccccc" />
        <path
           style="fill:#05bbd5;fill-opacity:1;stroke:none;stroke-width:0.26458332px;stroke-linecap:butt;stroke-linejoin:miter;stroke-opacity:1"
           d="m -203.06901,86.113179 c 0.45674,-0.07798 1.36991,-0.233885 2.07125,-0.03351 0.70135,0.200378 1.1915,0.757371 1.79299,1.091485 0.60148,0.334115 1.31417,0.445472 1.77061,1.580901 0.45644,1.135429 0.65695,3.29652 0.71479,6.409652 0.0578,3.113132 -0.0269,7.1781 -0.21107,10.29756 -0.18412,3.11945 -0.46759,5.29267 -0.5621,7.26931 -0.0945,1.97664 -2e-5,3.75629 0.0945,5.53593 0,0 -1.41741,-1.03944 -1.41741,-1.03944 -0.34648,-1.43316 -0.69301,-2.86651 -0.75599,-4.82701 -0.063,-1.9605 0.15755,-4.44944 0.14178,-6.07148 -0.0158,-1.62204 -0.26779,-2.37807 -0.76686,-2.71644 -0.49907,-0.33837 -1.24591,-0.25924 -1.47451,-0.71001 -0.2286,-0.45077 0.0608,-1.43038 -0.0394,-2.57711 -0.10022,-1.146739 -0.59037,-2.461236 -1.02466,-3.752982 -0.43429,-1.291747 -0.81297,-2.561414 -0.99112,-3.942256 -0.17816,-1.380842 -0.15589,-2.873299 -0.0891,-3.964602 0.0668,-1.091303 0.17822,-1.781876 0.23387,-2.126949 0.0557,-0.345073 0.0557,-0.345073 0.51241,-0.423052 z"
           id="path1177"
           inkscape:connector-curvature="0"
           inkscape:path-effect="#path-effect1179"
           inkscape:original-d="m -203.52574,86.191158 c 0.91343,-0.156171 1.8266,-0.312079 2.73951,-0.46772 0.4901,0.556363 0.98025,1.113359 1.46998,1.670434 0.71301,0.111101 1.4257,0.222459 2.13816,0.334086 0.20065,2.159503 0.40117,4.320593 0.60135,6.481286 -0.0845,4.065604 -0.16931,8.130576 -0.25436,12.196256 -0.28323,2.17325 -0.5667,4.34647 -0.85045,6.52009 0.0948,1.77961 0.28349,5.33892 0.28349,5.33892 l -1.41741,-1.03944 c 0,0 -0.6927,-2.86658 -1.03944,-4.29948 0.2207,-2.48801 0.44124,-4.97695 0.66146,-7.46503 -0.25169,-0.75613 -0.5037,-1.51216 -0.75595,-2.26785 -0.74624,0.0788 -1.49307,0.15796 -2.23999,0.23733 0.28991,-0.98063 0.57934,-1.96024 0.86862,-2.93996 -0.48957,-1.313919 -0.97972,-2.628416 -1.46998,-3.942226 -0.37833,-1.269656 -0.757,-2.539325 -1.1359,-3.808592 0.0225,-1.492319 0.0448,-2.984775 0.0668,-4.476763 0.11161,-0.690587 0.22299,-1.38116 0.33409,-2.071341 z"
           sodipodi:nodetypes="ccccccccccccccccccc" />
        <path
           style="fill:#17325f;fill-opacity:1;stroke:none;stroke-width:0.26458332px;stroke-linecap:butt;stroke-linejoin:miter;stroke-opacity:1"
           d="m -184.41958,97.019421 c -0.0963,-0.01157 -0.20397,0.04027 -0.32607,0.170532 -0.39077,0.416846 -0.97004,1.574729 -1.59369,4.202837 -0.62368,2.62811 -1.29157,6.72673 -1.89291,11.67112 -0.4163,3.42283 -0.91671,7.35539 -1.26898,10.75461 l 4.81981,2.38147 c 0.0633,-0.62232 0.0848,-1.25552 0.15733,-1.97759 0.55682,-5.54588 0.27829,-14.85419 0.63471,-19.71042 0.35642,-4.856227 0.16991,-5.975687 -0.0264,-6.663154 -0.13494,-0.47263 -0.29197,-0.803941 -0.50385,-0.829405 z"
           id="path1201"
           inkscape:connector-curvature="0"
           sodipodi:nodetypes="cccccccsccc" />
        <path
           inkscape:connector-curvature="0"
           style="fill:#05bbd5;fill-opacity:1;stroke:none;stroke-width:0.7537539px;stroke-linecap:butt;stroke-linejoin:miter;stroke-opacity:1"
           d="m -677.62695,366.22266 c -3.05758,0.14349 -5.98144,1.24657 -8.2461,2.86328 -2.58829,1.84765 -4.3158,4.36862 -5.84961,8.3164 -1.53377,3.94777 -2.87079,9.30395 -4.02343,16.03321 -1.15265,6.72922 -2.1102,14.79562 -2.87696,23.53125 -0.7669,8.73566 -1.34375,18.14406 -1.34375,24.44336 0,6.29911 0.6056,9.65138 2.22071,13.6875 1.61518,4.03604 4.36008,9.19237 7.39648,13.33398 2.34957,3.20476 5.00629,5.97963 9.12891,8.61328 0.57951,-1.28714 1.30772,-2.60215 1.5332,-4.22265 0.41964,-3.01618 -0.9241,-7.093 -2.01562,-14.34961 -1.09157,-7.25662 -1.93174,-17.69483 -2.43555,-26.33789 -0.50381,-8.64303 -0.67188,-15.49363 -0.75586,-21.52735 -0.0839,-6.03371 -0.0839,-11.25271 0.75586,-15.24804 0.83985,-3.99534 2.52081,-6.76898 3.48633,-8.60352 0.96551,-1.83451 1.21696,-2.73049 1.55273,-3.62695 0.33562,-0.89651 0.75713,-1.7946 1.55469,-1.67188 0.79755,0.12284 1.9728,1.26313 2.8125,5.01367 0.83966,3.75054 1.34187,10.11119 2.26562,15.98242 0.92376,5.87124 2.26778,11.25323 4.45118,17.04297 2.18335,5.78975 5.2054,11.98624 8.64843,16.87891 3.44304,4.89267 7.30712,8.48025 9.82617,11.66016 2.5191,3.1799 3.69498,5.95084 3.7793,7.82617 0.0843,1.87529 -0.92502,2.85387 -2.77344,2.93555 -1.84845,0.0816 -4.53318,-0.73305 -7.97656,-3.50586 -3.44341,-2.77285 -7.64104,-7.50002 -10.66406,-12.71875 -3.02302,-5.21874 -4.86982,-10.9272 -6.63281,-14.02539 -1.76304,-3.09823 -3.4433,-3.58812 -3.7793,0.73437 -0.336,4.32249 0.67199,13.45262 1.5957,22.17773 0.92372,8.72508 1.76384,17.04236 3.19141,23.15821 0.72185,3.09259 1.59107,5.61673 2.22266,7.64648 5.62073,2.22871 12.01607,4.20367 17.39257,5.26367 7.25295,1.43006 12.61393,1.2004 15.76953,-1.45703 v -47.9375 c -0.54799,-1.38126 -1.13835,-2.93302 -1.77539,-4.78711 -2.68414,-7.81228 -6.13421,-20.74598 -8.81836,-29.90234 -2.68406,-9.15644 -4.65146,-14.67295 -7.40625,-19.64258 -2.75474,-4.96959 -6.39879,-9.6755 -10.04101,-12.7832 -3.64218,-3.10771 -7.32587,-4.63535 -10.85156,-4.79492 -0.44071,-0.0199 -0.88157,-0.0205 -1.31836,0 z"
           transform="scale(0.26458333)"
           id="path1221" />
        <path
           style="opacity:1;fill:#ffffff;fill-opacity:1;stroke:none;stroke-width:2.7809999;stroke-linecap:round;stroke-miterlimit:4;stroke-dasharray:none;stroke-dashoffset:0;stroke-opacity:1"
           d="m -185.18108,115.6911 0.38248,1.08217 1.46582,10.1396 -2.12392,-1.0402 z"
           id="rect1250"
           inkscape:connector-curvature="0"
           sodipodi:nodetypes="ccccc" />
        <path
           inkscape:connector-curvature="0"
           style="fill:#ffffff;stroke:none;stroke-width:0.99999994px;stroke-linecap:butt;stroke-linejoin:miter;stroke-opacity:1"
           d="m -643.48438,351.7793 c -0.82675,0.77487 -1.61563,1.8421 -2.33984,3.10937 -2.35776,4.12577 -4.0398,10.35278 -3.70312,17.00391 0.33668,6.65113 2.69271,13.72033 4.6289,19.69726 1.9362,5.97694 3.45167,10.85965 4.88282,16.5 0.9006,3.54941 1.76834,7.39397 2.95898,10.57813 v -63.67578 z"
           id="path1253"
           transform="scale(0.26458333)" />
        <path
           style="fill:#0480c3;fill-opacity:1;stroke:none;stroke-width:0.22018197px;stroke-linecap:butt;stroke-linejoin:miter;stroke-opacity:1"
           d="m -134.40198,85.285534 c 0.15754,-0.916195 0.47252,-1.701473 1.00795,-2.050359 0.53544,-0.348886 1.2916,-0.261608 1.95284,0.763276 0.66124,1.024884 1.22837,2.988645 1.57486,5.104583 0.34649,2.115937 0.47248,4.38436 0.31499,6.914788 -0.15748,2.530427 -0.59842,5.322308 -1.03941,8.136338 -0.44099,2.81402 -0.88193,5.64954 -1.35429,7.11112 -0.47236,1.46158 -0.9763,1.54883 -1.29146,0.19548 -0.31517,-1.35334 -0.44108,-4.14373 -0.40957,-6.69583 0.0315,-2.5521 0.2205,-4.86445 0.47248,-7.002085 0.25198,-2.137635 0.56699,-4.101001 0.34652,-5.64958 -0.22047,-1.548579 -0.9765,-2.68299 -1.35448,-3.773707 -0.37797,-1.090717 -0.37797,-2.137829 -0.22043,-3.054024 z"
           id="path1460"
           inkscape:connector-curvature="0"
           inkscape:path-effect="#path-effect1462"
           inkscape:original-d="m -134.55952,85.154873 c 0.31525,-0.785466 0.63023,-1.570744 0.94494,-2.355841 0.75601,0.08705 1.51217,0.174325 2.26786,0.261761 0.56707,1.962457 1.1342,3.926216 1.70089,5.889594 0.12627,2.268569 0.25225,4.536992 0.37798,6.805762 -0.44074,2.792137 -0.88168,5.584021 -1.32292,8.376311 -0.44074,2.83576 -0.88168,5.67128 -1.32291,8.50719 -0.50374,0.0871 -1.00768,0.17432 -1.51191,0.26176 -0.1258,-2.794 -0.25172,-5.58439 -0.37797,-8.37631 0.18924,-2.31225 0.37824,-4.6246 0.56696,-6.936633 0.31522,-1.96322 0.63023,-3.926585 0.94494,-5.889602 -0.75561,-1.134357 -1.51164,-2.26877 -2.26786,-3.402877 2.7e-4,-1.047147 2.7e-4,-2.094259 0,-3.141115 z" />
        <path
           style="fill:#17325f;fill-opacity:1;stroke:none;stroke-width:0.26458332px;stroke-linecap:butt;stroke-linejoin:miter;stroke-opacity:1"
           d="m -118.54464,70.706061 -49.75613,24.745775 c 0.49667,1.209381 1.39112,2.368357 2.11666,2.899563 0.88241,0.64606 1.51198,0.362556 2.47272,-0.346231 0.96074,-0.708787 2.25232,-1.842428 4.34702,-3.055112 2.09471,-1.21268 4.99206,-2.504043 7.41764,-3.732588 2.42557,-1.228545 4.37784,-2.394005 6.33088,-3.228742 1.95303,-0.834739 3.90562,-1.338699 5.68544,-2.173512 1.77981,-0.834814 3.38634,-1.999599 5.19761,-3.039089 1.81128,-1.039492 3.82658,-1.953006 5.6379,-2.961061 1.81132,-1.008054 3.41748,-2.110438 5.05551,-2.7404 1.63802,-0.629965 3.30716,-0.787167 4.40179,-1.661398 0.46633,-0.372433 0.82741,-0.875324 1.09296,-1.41645 z"
           id="path1316"
           inkscape:connector-curvature="0" />
        <path
           inkscape:connector-curvature="0"
           style="fill:#ffffff;stroke:none;stroke-width:0.26458332px;stroke-linecap:butt;stroke-linejoin:miter;stroke-opacity:1"
           d="m -166.8539,93.074939 c 0.21875,0.205018 0.42747,0.487389 0.61909,0.822688 0.62382,1.09161 1.06886,2.739174 0.97978,4.498948 -0.0891,1.759785 -0.71245,3.630185 -1.22473,5.211575 -0.51229,1.5814 -0.91325,2.87328 -1.29191,4.36563 -0.23829,0.93911 -0.46788,1.95632 -0.7829,2.79879 V 93.925016 Z"
           id="path1253-6" />
        <path
           style="fill:#ffffff;stroke:none;stroke-width:0.26458332px;stroke-linecap:butt;stroke-linejoin:miter;stroke-opacity:1"
           d="m -168.5546,122.44561 c -0.16619,0.32309 -0.31694,0.86837 -0.45579,1.36064 -0.25978,0.92105 -0.48057,1.63028 -0.61443,2.30735 -0.13386,0.67706 -0.18107,1.32291 -0.13384,2.08669 0.0472,0.76379 0.18892,1.64597 0.0315,2.41743 -0.1574,0.77145 -0.61425,1.43323 -0.85834,2.05517 -0.0768,0.19555 -0.12973,0.38642 -0.16175,0.57102 l 2.19263,1.09606 z"
           id="path1288"
           inkscape:connector-curvature="0" />
        <path
           inkscape:connector-curvature="0"
           style="fill:#0480c3;fill-opacity:1;stroke:none;stroke-width:0.80279928px;stroke-linecap:butt;stroke-linejoin:miter;stroke-opacity:1"
           d="m -607.44727,367.75781 c -1.70167,-0.0285 -3.4301,0.6304 -4.94531,1.82031 -2.69367,2.11541 -4.75152,5.98299 -7.08984,10.39649 -2.33832,4.4135 -5.03197,9.51252 -8.14649,15.91406 -3.11455,6.40154 -6.64974,14.1062 -9.42773,20.7793 v 61.56445 c 3.56061,2.92695 7.95766,3.86154 11.61719,3.75586 5.64109,-0.1629 9.51238,-2.76574 11.86914,-7.43164 2.35676,-4.6659 3.19821,-11.39337 3.61914,-16.43945 0.42092,-5.04605 0.42035,-8.40899 1.09375,-7.97461 0.67336,0.43438 2.02133,4.66539 3.70508,1.89844 1.68378,-2.767 3.70376,-12.53242 5.13476,-25.60743 1.43101,-13.07497 2.27286,-29.45693 1.6836,-39.98242 -0.58927,-10.52549 -2.6099,-15.19358 -5.30274,-17.30859 -1.17812,-0.92532 -2.48702,-1.36261 -3.81055,-1.38477 z"
           transform="scale(0.26458333)"
           id="path1357" />
        <path
           inkscape:connector-curvature="0"
           style="fill:#17325f;fill-opacity:1;stroke:none;stroke-width:0.934726px;stroke-linecap:butt;stroke-linejoin:miter;stroke-opacity:1"
           d="m -606.20312,377.26172 c -0.23816,0.0154 -0.46668,0.21019 -0.66016,0.49609 -0.77394,1.14363 -1.01132,3.74469 -1.54688,6.39649 -0.53552,2.65175 -1.36877,5.35808 -1.90429,7.4375 -0.53552,2.07938 -0.77409,3.53708 -1.25,4.10937 -0.47592,0.57226 -1.19167,0.25943 -1.54883,1.45508 -0.35743,1.19565 -0.35668,4.00359 -0.41602,7.5918 -0.0595,3.58817 -0.17799,8.16715 -0.53515,12.53515 -0.35706,4.368 -0.95309,8.52975 -0.95313,12.16992 -7e-5,3.64018 0.5946,6.75968 1.66602,9.41211 1.07142,2.65248 2.61916,4.8383 3.75,8.32227 0.29678,0.91435 0.56508,1.92337 0.80664,3.02539 0.58811,0.52588 1.62741,3.41135 2.93554,2.60742 0.30002,-9.80511 0.54113,-17.80934 0.8418,-27.42383 0.59516,-19.03517 1.07268,-33.60448 0.65625,-41.0371 -0.31232,-5.5745 -1.12734,-7.14393 -1.84179,-7.09766 z"
           transform="scale(0.26458333)"
           id="path1377" />
        <path
           style="fill:#0480c3;fill-opacity:1;stroke:none;stroke-width:0.23833714px;stroke-linecap:butt;stroke-linejoin:miter;stroke-opacity:1"
           d="m -143.37653,89.163631 c -0.29689,0.0018 -0.61185,0.02425 -0.94669,0.0621 -1.33935,0.151416 -3.75436,1.663039 -4.93406,2.117263 -1.17969,0.454226 -2.54282,1.975174 -3.21262,3.338223 -0.6698,1.363047 0.10964,1.460774 -0.65571,3.530524 -0.76534,2.069759 -1.65844,3.988679 -2.16873,6.108999 -0.51029,2.12033 -0.63787,4.44266 -0.70166,7.04258 -0.0638,2.59994 -0.0638,5.47776 0.0637,8.10291 0.12756,2.62514 0.64608,-0.93249 0.77366,0.53158 0.23484,0.87646 0.35472,4.31426 2.09743,4.36358 l 8.63525,-4.53962 c 1.96704,-1.42895 3.16631,-3.71176 3.60617,-5.92233 0.63778,-3.30683 1.34386,-4.22998 1.50326,-8.72185 0.15935,-4.49187 -0.0583,-5.525301 -0.34618,-8.024444 -0.28788,-2.499143 -0.65582,-6.690461 -1.47825,-7.334135 -0.61683,-0.482758 -1.34493,-0.660685 -2.23561,-0.655384 z"
           id="path1412"
           inkscape:connector-curvature="0"
           sodipodi:nodetypes="cccsccccccccccccc" />
        <path
           style="opacity:1;fill:#17325f;fill-opacity:1;stroke:none;stroke-width:2.7809999;stroke-linecap:round;stroke-miterlimit:4;stroke-dasharray:none;stroke-dashoffset:0;stroke-opacity:1"
           d="m -155.58369,99.187957 -0.47247,0.283482 -1.1444,29.181301 2.4527,-1.22568 z"
           id="rect1154-0"
           inkscape:connector-curvature="0"
           sodipodi:nodetypes="ccccc" />
        <path
           style="opacity:1;fill:#17325f;fill-opacity:1;stroke:none;stroke-width:3.65162706;stroke-linecap:round;stroke-miterlimit:4;stroke-dasharray:none;stroke-dashoffset:0;stroke-opacity:1"
           d="m -138.98179,82.242395 -0.62438,0.369847 -1.51233,38.071868 3.24128,-1.5991 z"
           id="rect1154-0-3"
           inkscape:connector-curvature="0"
           sodipodi:nodetypes="ccccc" />
        <path
           style="fill:#00bbd6;fill-opacity:1;stroke:none;stroke-width:0.15828267px;stroke-linecap:butt;stroke-linejoin:miter;stroke-opacity:1"
           d="m -150.73459,94.256804 c 0.28638,-0.793634 0.53691,-1.071415 1.07344,-0.63519 0.53652,0.436225 1.3602,1.58771 1.71812,2.857492 0.35792,1.269781 0.25055,2.658641 0.17897,4.762004 -0.0716,2.10336 -0.10738,4.92045 -0.3579,7.26177 -0.25053,2.34132 -0.71578,4.20628 -1.19144,5.9904 -0.47566,1.78413 -0.96142,3.48629 -1.6242,5.04311 -0.66278,1.55683 -1.50136,2.96535 -1.6446,2.92565 -0.14325,-0.0397 0.40935,-1.52791 0.87511,-3.38198 0.46575,-1.85407 0.84433,-4.07266 1.10521,-6.2336 0.26088,-2.16094 0.40406,-4.26427 0.42195,-6.30783 0.0179,-2.04355 -0.0895,-4.02785 -0.35792,-5.49603 -0.26843,-1.468172 -0.69795,-2.420632 -0.7516,-3.55159 -0.0537,-1.130958 0.26849,-2.440572 0.55486,-3.234206 z"
           id="path1456"
           inkscape:connector-curvature="0"
           inkscape:path-effect="#path-effect1458"
           inkscape:original-d="m -150.69889,93.741108 c 0.25067,-0.277946 0.50121,-0.555723 0.7516,-0.833333 0.82284,1.149935 1.64652,2.301417 2.46954,3.452376 -0.10723,1.388746 -0.21458,2.777607 -0.32211,4.166669 -0.0356,2.81765 -0.0714,5.63474 -0.10737,8.45237 -0.46516,1.86503 -0.93041,3.72999 -1.39583,5.59524 -0.48582,1.70303 -0.97158,3.40519 -1.45803,5.10908 -0.8392,1.40976 -1.67778,2.81828 -2.51752,4.22855 0.55331,-1.48967 1.10591,-2.97788 1.65855,-4.46665 0.37894,-2.21938 0.75752,-4.43797 1.1359,-6.6567 0.14332,-2.10318 0.28648,-4.20651 0.42949,-6.30952 -0.1072,-1.98412 -0.21459,-3.96842 -0.32212,-5.95237 -0.4293,-0.952477 -0.85882,-1.904936 -1.28845,-2.857148 0.32224,-1.309596 0.64438,-2.61921 0.96635,-3.928564 z"
           sodipodi:nodetypes="cccccccccccccc" />
        <path
           style="fill:#0480c3;fill-opacity:1;stroke:none;stroke-width:0.19285962px;stroke-linecap:butt;stroke-linejoin:miter;stroke-opacity:1"
           d="m -124.46884,80.411257 c 0.11389,-0.475185 0.34157,-1.425153 0.18214,-1.853633 -0.15942,-0.42848 -0.70601,-0.335845 -1.184,0.751928 -0.47798,1.087772 -0.88793,3.172072 -1.18963,5.417911 -0.30169,2.245839 -0.49519,4.653257 -0.38136,7.339135 0.11382,2.685878 0.535,5.649133 1.50269,8.555852 0.9677,2.90672 2.48168,5.75614 3.48933,7.0161 1.00765,1.25997 1.50806,0.93063 1.13756,-0.42603 -0.3705,-1.35666 -1.61013,-3.73532 -2.46964,-6.24766 -0.85951,-2.512347 -1.33763,-5.155706 -1.51975,-7.424673 -0.18212,-2.268966 -0.0683,-4.163383 -0.006,-5.741462 0.0626,-1.578079 0.074,-2.840373 0.11957,-3.939977 0.0456,-1.099604 0.12522,-2.035863 0.16506,-2.504085 0.0398,-0.468222 0.0398,-0.468222 0.15369,-0.943406 z"
           id="path1460-5"
           inkscape:connector-curvature="0"
           inkscape:path-effect="#path-effect1462-7"
           inkscape:original-d="m -124.58273,80.886441 c 0.2279,-0.95034 0.45559,-1.900306 0.68305,-2.849907 -0.54648,0.09239 -1.09307,0.185026 -1.63932,0.277829 -0.40991,2.082917 -0.81986,4.167216 -1.22949,6.25111 -0.19336,2.407843 -0.38686,4.81526 -0.58059,7.223514 0.42143,2.963458 0.84262,5.926712 1.26364,8.890473 1.51438,2.84958 3.02837,5.69899 4.54227,8.54887 0.50109,-0.3299 1.00151,-0.65923 1.50271,-0.98896 -1.2419,-2.38364 -2.48153,-4.7623 -3.72262,-7.14317 -0.47795,-2.643729 -0.95608,-5.287086 -1.4344,-7.930294 0.11403,-1.894675 0.22787,-3.789092 0.34153,-5.683247 0.0116,-1.262011 0.023,-2.524305 0.0342,-3.786483 0.0799,-0.937017 0.15956,-1.873276 0.23906,-2.809735 z"
           sodipodi:nodetypes="cccccccccccccc" />
        <path
           inkscape:connector-curvature="0"
           style="fill:#17325f;fill-opacity:1;stroke:none;stroke-width:0.99999994px;stroke-linecap:butt;stroke-linejoin:miter;stroke-opacity:1"
           d="m -486.2168,330.79102 c -0.0837,0.0817 -0.11423,0.62653 -0.0879,1.70507 0.0842,3.45134 0.7573,12.37414 1.00977,22.22266 0.25255,9.84852 0.0858,20.62421 -0.75586,30.55664 -0.8417,9.93245 -2.35765,19.02633 -4.04102,26.60156 -1.68336,7.57523 -3.53637,13.63738 -5.72461,18.77149 -1.43333,3.3629 -3.00424,6.3247 -3.44921,8.5625 l 41.69726,-20.73828 c -1.27654,-2.62874 -4.48112,-5.03005 -7.10156,-8.2793 -4.20945,-5.21964 -6.90226,-12.62706 -9.42774,-21.71875 -2.52544,-9.09173 -4.88233,-19.86607 -6.73437,-29.37891 -1.85205,-9.51284 -3.19875,-17.75821 -4.125,-22.89453 -0.63677,-3.53122 -1.07574,-5.58995 -1.25977,-5.41015 z"
           transform="scale(0.26458333)"
           id="path1482" />
        <path
           inkscape:connector-curvature="0"
           style="fill:#ffffff;stroke:none;stroke-width:0.99999994px;stroke-linecap:butt;stroke-linejoin:miter;stroke-opacity:1"
           d="m -448.04297,261.23633 -189.01367,94.00586 v 10.25976 c 1.17176,0.83132 2.36521,1.37371 3.52344,1.75977 2.52619,0.84202 4.88142,1.00994 7.91211,-1.34766 3.03068,-2.3576 6.73411,-7.23707 10.77539,-10.9414 4.04127,-3.70434 8.41705,-6.23087 12.12109,-6.98828 3.70404,-0.75742 6.73521,0.25435 12.03906,-0.67188 5.30385,-0.92623 12.87683,-3.78859 18.4336,-7.07227 5.55677,-3.28367 9.09214,-6.98588 12.88086,-9.5957 3.78872,-2.60982 7.82798,-4.12411 11.86914,-5.30273 4.04116,-1.17863 8.08008,-2.02111 12.03711,-3.70508 3.95703,-1.68397 7.82834,-4.20856 11.78515,-7.57617 3.95681,-3.36761 7.99693,-7.57565 11.44922,-10.10157 3.45229,-2.52591 6.31366,-3.36752 11.61719,-4.88281 5.30352,-1.51529 13.04595,-3.70299 18.85547,-6.06055 5.80952,-2.35755 9.68019,-4.88164 13.46875,-6.22851 3.78856,-1.34687 7.49052,-1.51563 10.68945,-4.63086 3.19893,-3.11523 5.89311,-9.1734 7.99805,-13.97266 0.57854,-1.31908 1.1041,-2.53723 1.55859,-3.69336 z"
           id="path1502"
           transform="scale(0.26458333)" />
        <path
           style="fill:#ffffff;stroke:none;stroke-width:0.26418135px;stroke-linecap:butt;stroke-linejoin:miter;stroke-opacity:1"
           d="m -119.10697,69.399194 -1.97766,0.983919 c -0.42286,1.084297 -0.69354,2.485755 -0.62425,3.969782 0.0854,1.829554 0.68336,3.774194 1.17461,5.418275 0.49126,1.644093 0.87556,2.987233 1.23868,4.538743 0.22851,0.97634 0.44877,2.03351 0.75086,2.90938 V 69.704084 Z"
           id="path1253-6-8"
           inkscape:connector-curvature="0" />
        <path
           style="fill:#ffffff;stroke:none;stroke-width:0.26458332px;stroke-linecap:butt;stroke-linejoin:miter;stroke-opacity:1"
           d="m -156.67479,89.882397 c -0.71573,0.432842 -2.14582,1.297697 -2.21439,1.70541 -0.0686,0.407712 1.22477,0.356556 2.00304,1.546759 0.77826,1.190204 1.04036,3.621802 1.17915,5.46549 0.1388,1.843684 0.1543,3.099984 0.19318,4.664684 0.0389,1.5647 0.10114,3.43715 0.23259,4.17306 0.13146,0.73591 0.33188,0.33506 0.50996,-0.2326 0.17807,-0.56765 0.3341,-1.30322 0.31181,-1.90439 -0.0223,-0.60117 -0.22283,-1.06908 -0.26732,-1.51457 -0.0445,-0.44549 0.0669,-0.86878 0.0557,-1.23606 -0.0111,-0.36729 -0.14489,-0.67933 -0.13373,-1.32512 0.0111,-0.64578 0.16713,-1.626179 0.27847,-2.617143 0.11134,-0.990964 0.17817,-1.993528 0.24139,-3.334268 0.0632,-1.34074 0.12287,-3.020913 5e-4,-3.855997 -0.12237,-0.835084 -0.42701,-0.825818 -0.54604,-1.031453 -0.11904,-0.205636 -0.0522,-0.626351 -0.13498,-0.842608 -0.0828,-0.216257 -0.31563,-0.228879 -0.50613,-0.210667 -0.1905,0.01821 -0.33882,0.06736 -0.41316,0.092 -0.0743,0.02464 -0.0743,0.02463 -0.79008,0.457476 z"
           id="path1568"
           inkscape:connector-curvature="0"
           inkscape:path-effect="#path-effect1570"
           inkscape:original-d="m -155.95906,89.449554 c -1.43151,0.865608 -2.8616,1.730463 -4.29467,2.597226 1.29598,-0.05151 2.58931,-0.102671 3.88376,-0.153617 0.26238,2.431576 0.52448,4.863173 0.78628,7.294794 0.0158,1.255783 0.0313,2.512083 0.0465,3.768513 0.0625,1.87296 0.12479,3.74541 0.18679,5.61851 0.20074,-0.40122 0.40117,-0.80207 0.60136,-1.20271 0.15604,-0.73468 0.31208,-1.47025 0.46772,-2.20498 -0.20011,-0.46778 -0.40064,-0.9357 -0.60136,-1.40316 0.1116,-0.42333 0.22299,-0.84662 0.33409,-1.26953 -0.13327,-0.31185 -0.26701,-0.62389 -0.40091,-0.93544 0.15611,-0.97985 0.31208,-1.960245 0.46773,-2.939968 0.0671,-1.00222 0.13389,-2.004787 0.20045,-3.006783 0.0599,-1.679491 0.11954,-3.359664 0.17892,-5.0391 -0.30438,0.009 -0.60902,0.01827 -0.91392,0.0278 0.0671,-0.420505 0.13393,-0.841227 0.20046,-1.261177 -0.23236,-0.01287 -0.46517,-0.0255 -0.69815,-0.03785 -0.14809,0.04889 -0.29641,0.09804 -0.44505,0.147475 z"
           sodipodi:nodetypes="ccccccccccccccccccc" />
        <path
           style="fill:#ffffff;stroke:none;stroke-width:0.26458332px;stroke-linecap:butt;stroke-linejoin:miter;stroke-opacity:1"
           d="m -120.28236,75.19954 c -0.14471,0.367337 -0.43425,1.102327 -0.69045,1.40316 -0.25621,0.300834 -0.47884,0.167256 -0.85753,1.81e-4 -0.37869,-0.167075 -0.91305,-0.367459 -1.51441,-0.245028 -0.60137,0.122431 -1.26936,0.567758 -1.92656,1.068996 -0.65719,0.501238 -1.3028,1.057797 -1.61475,2.049223 -0.31196,0.991427 -0.2897,2.41624 -0.41218,3.663571 -0.12249,1.24733 -0.38971,2.316213 -0.51224,3.24066 -0.12254,0.924448 -0.10028,1.703758 -0.32293,2.249511 -0.22265,0.545754 -0.69022,0.857467 -0.94653,0.779343 -0.25631,-0.07812 -0.30083,-0.545537 -0.35649,-1.06879 -0.0557,-0.523253 -0.12252,-1.102635 -0.32291,-1.659259 -0.2004,-0.556625 -0.53462,-1.091377 -0.64594,-1.6594 -0.11132,-0.568022 6e-5,-1.16946 0.0223,-1.581375 0.0222,-0.411914 -0.0446,-0.634756 -0.5453,-0.946306 -0.50069,-0.31155 -1.43685,-0.712762 -2.17178,-0.857584 -0.73494,-0.144821 -1.26941,-0.03347 -1.96019,-0.167159 -0.69078,-0.133686 -1.53664,-0.512098 -1.88189,-1.158243 -0.34525,-0.646145 -0.18937,-1.559184 1.06877,-2.338507 1.25814,-0.779322 3.6198,-1.425438 5.99166,-2.171522 2.37185,-0.746084 4.75532,-1.59255 6.203,-2.138228 1.44767,-0.545678 1.96001,-0.79071 2.39403,-0.54592 0.43401,0.24479 0.7906,0.980236 0.9688,1.347788 0.17821,0.367552 0.17823,0.367552 0.0335,0.734888 z"
           id="path1572"
           inkscape:connector-curvature="0"
           inkscape:path-effect="#path-effect1574"
           inkscape:original-d="m -120.13765,74.832204 c -0.28928,0.734727 -0.57882,1.469718 -0.86863,2.204974 -0.22255,-0.133959 -0.44518,-0.267534 -0.66817,-0.400905 -0.53446,-0.200787 -1.06882,-0.401169 -1.60362,-0.601355 -0.66809,0.445304 -1.33608,0.890632 -2.00452,1.336346 -0.64593,0.556803 -1.29154,1.113359 -1.9377,1.670434 0.0225,1.425797 0.0448,2.85061 0.0668,4.276312 -0.26705,1.06901 -0.53427,2.137892 -0.8018,3.207234 0.0225,0.7795 0.0448,1.558809 0.0668,2.33861 -0.46761,0.311653 -0.93518,0.623364 -1.40316,0.935442 -0.0443,-0.468291 -0.0888,-0.935706 -0.13364,-1.403164 -0.0665,-0.579054 -0.13337,-1.158433 -0.20045,-1.737252 -0.33369,-0.53459 -0.66791,-1.069342 -1.00226,-1.603616 0.11161,-0.60154 0.22299,-1.202978 0.33409,-1.804069 -0.0665,-0.222877 -0.13337,-0.445714 -0.20046,-0.668176 -0.93446,-0.400862 -1.87062,-0.802071 -2.80632,-1.202711 -0.53435,0.111112 -1.06882,0.222459 -1.60362,0.334087 -0.84658,-0.379114 -1.69244,-0.757529 -2.53906,-1.135896 0.15619,-0.913567 0.31207,-1.826607 0.46772,-2.739512 2.36037,-0.645954 4.72203,-1.292069 7.08264,-1.937705 2.3831,-0.846505 4.76657,-1.692971 7.14946,-2.539061 0.51246,-0.245229 1.0248,-0.490257 1.5368,-0.734991 0.3564,0.734271 0.71298,1.469718 1.06908,2.204974 z" />
        <path
           inkscape:connector-curvature="0"
           style="fill:#ffffff;stroke:none;stroke-width:0.99999994px;stroke-linecap:butt;stroke-linejoin:miter;stroke-opacity:1"
           d="m -527.69922,307.93164 c -0.29491,-0.005 -0.48542,0.0897 -0.86523,0.2793 -0.75963,0.37925 -2.28082,1.13836 -4.36524,2.76758 -2.08442,1.62922 -4.73255,4.12963 -9.49414,6.80078 -4.76158,2.67114 -11.64127,5.51624 -15.76172,8.04492 -4.12045,2.52868 -5.48772,4.74218 -5.76367,5.91211 -0.27595,1.16993 0.54071,1.28868 1.56055,0.84179 1.01984,-0.44688 2.23797,-1.45665 3.15429,-2.00781 0.91633,-0.55116 1.52662,-0.64054 2.27344,-0.55469 0.74682,0.0859 1.6298,0.34784 2.8086,0.50977 1.1788,0.16193 2.65081,0.2248 3.83007,-0.25977 1.17927,-0.48456 2.06163,-1.51491 3.53516,-2.36718 1.47354,-0.85228 3.53804,-1.52649 4.73633,-1.56836 1.19829,-0.0419 1.53548,0.54636 2.85156,0.57812 1.31608,0.0318 3.60989,-0.49396 4.92383,-0.25195 1.31394,0.24201 1.65176,1.25235 2.2832,2.2207 0.63145,0.96836 1.55716,1.89375 2.55664,3.15625 0.99948,1.26251 2.07313,2.86306 2.9043,5.58789 0.83117,2.72483 1.42088,6.57622 1.8418,12.68946 0.42091,6.11323 0.67303,14.49063 0.82031,20.33984 0.14728,5.84921 0.19007,9.17743 0.26367,11.69141 0.0736,2.51398 0.1771,4.21746 0.24024,7.08984 0.0631,2.87238 0.0856,6.91474 0.11718,10.84961 0.0316,3.93487 0.0739,7.76696 0.24219,10.25977 0.16826,2.4928 0.46301,3.65139 0.70508,7.00781 0.24206,3.35642 0.42965,8.91393 0.5664,13.16406 0.13676,4.25013 0.22252,7.1974 0.16993,10.40625 -0.0526,3.20886 -0.24134,6.6743 -0.14649,8.4668 0.0159,0.29999 0.0422,0.538 0.0762,0.75 L -511,445.04883 c 0.0127,-0.79406 -0.11746,-1.60955 -0.34766,-2.3418 -0.46301,-1.47285 -1.32558,-2.60904 -2.14648,-3.91406 -0.8209,-1.30503 -1.59928,-2.77724 -1.82031,-4.31445 -0.22104,-1.53722 0.11527,-3.13663 -0.26367,-4.55664 -0.37895,-1.42002 -1.47187,-2.66 -2.70313,-6.13282 -1.23126,-3.47282 -2.59856,-9.17208 -3.31445,-12.7832 -0.71589,-3.61112 -0.77907,-5.12563 -0.86328,-6.35742 -0.0842,-1.23179 -0.1905,-2.17781 0.0937,-4.67188 0.28424,-2.49406 0.95909,-6.53403 1.33789,-10.61718 0.37879,-4.08316 0.4629,-8.20711 0.46289,-13.08985 -1e-5,-4.88274 -0.0842,-10.52205 0,-14.90039 0.0842,-4.37834 0.33642,-7.4924 0.16797,-10.22852 -0.16846,-2.73611 -0.75764,-5.0915 -0.4629,-11.82617 0.29475,-6.73466 1.47288,-17.84932 0.4629,-23.82422 -1.00998,-5.97489 -4.20884,-6.81729 -5.8086,-7.23828 -0.79988,-0.21049 -1.19923,-0.31512 -1.49414,-0.32031 z"
           transform="scale(0.26458333)"
           id="path1576" />
        <path
           id="rect826-3-2"
           transform="matrix(0.26458333,0,0,0.26458333,-269.10569,2.0575704)"
           d="m 380.03516,158.44922 -22.95899,11.47851 c 0.36944,0.62951 0.78302,1.27621 1.25,1.94532 3.94887,5.65807 11.43101,12.78807 16.29297,15.79297 4.86195,3.00489 7.10202,1.88518 9.57617,0.35351 2.47412,-1.53165 5.18602,-3.47745 7.98438,-5.12695 2.7984,-1.6495 5.68721,-3.00658 9.42773,-2.88867 3.74049,0.11788 8.33739,1.71006 13.69922,3.625 5.36179,1.91493 11.49218,4.1553 16.38281,6.07031 4.8906,1.91501 8.54414,3.50586 11.51953,5.27344 2.9754,1.76757 5.27451,3.71124 11.34375,7.48242 6.06928,3.77118 15.90979,9.37095 24.33594,14.96875 8.42616,5.59779 15.43818,11.19454 22.18555,14.11133 6.74732,2.91678 13.23,3.15244 18.26758,4.18359 5.03758,1.03115 8.63153,2.85874 11.34179,4.74414 2.71027,1.8854 4.53721,3.82992 5.92188,5.98047 1.38467,2.15055 2.32769,4.50736 5.6875,6.57031 3.35981,2.06295 9.13232,3.83089 14.08203,4.74414 0.80638,0.14878 1.58174,0.26592 2.3418,0.36719 l 10.33398,-5.16797 z"
           style="opacity:1;fill:#ffffff;fill-opacity:1;stroke:none;stroke-width:6.46956253;stroke-linecap:round;stroke-miterlimit:4;stroke-dasharray:none;stroke-dashoffset:0;stroke-opacity:1"
           inkscape:connector-curvature="0" />
      </g>
    </g>
  </g>
</svg>
